<svg xmlns="http://www.w3.org/2000/svg" xml:space="preserve" width="400" height="400">
<rect width="100%" height="100%" fill="white"/>
  <path d="m163.045 233.087 36.965-63.976 33.918 58.727h-61.82l27.902-48.241 24.798 43.011h-43.58l18.782-32.527 15.723 27.274h-25.434l9.711-16.82 6.669 11.587h-7.317l1.574-2.708-1.855-1.068-3.418 5.91h14.707l-10.36-17.999-13.41 23.236h32.828l-19.418-33.684-22.486 38.937h50.979l-28.493-49.419-31.601 54.644h69.227l-37.626-65.126-40.672 70.378h87.361l-46.689-80.842-46.713 80.842h2.472l44.241-76.57 42.977 74.434zM175.877 312.6h6.069l17.371 46.97.18.478h2.332l17.629-47.448h6.068v-3.071h-16.159v3.071h6.705l-15.336 41.879-15.258-41.879h6.554v-3.071h-16.155zM211.561 77.164v9.285h-19.235V43.023h7.089v-3.071h-10.454v46.497h-6.946v3.071h32.833V77.164zM55.018 313.551h6.261l-16.201 43.424h-5.926v3.073h16.16v-3.073H48.61l15.691-42.27 15.552 42.27h-6.559v3.073H89.45v-3.073h-6l-16.122-43.424h6.187v-3.072H55.018zM55.018 43.023h6.261L45.078 86.449h-5.926v3.071h16.16v-3.071H48.61l15.691-42.271 15.552 42.271h-6.559v3.071H89.45v-3.071h-6L67.328 43.023h6.187v-3.071H55.018zM82.687 183.604l4.67-4.67-2.374-2.378-4.601 4.599c-4.348-4.07-10.132-6.542-16.592-6.542-13.814 0-24.639 11.206-24.639 25.514 0 6.361 2.149 12.102 5.739 16.522l-4.67 4.671 2.378 2.373 4.596-4.597c4.352 4.075 10.136 6.547 16.596 6.547 13.814 0 24.635-11.208 24.635-25.517.001-6.36-2.144-12.1-5.738-16.522zM47.17 214.37c-2.888-3.822-4.58-8.736-4.58-14.243 0-12.794 9.112-22.444 21.201-22.444 5.657 0 10.646 2.133 14.369 5.695zm16.621 8.202c-5.657 0-10.649-2.134-14.373-5.698l30.994-30.991c2.884 3.823 4.581 8.738 4.581 14.244-.001 12.795-9.117 22.445-21.202 22.445zM329.663 313.551v19.589h-6.951v3.149h6.951v20.686h-6.951v3.073h34.662v-11.993h-3.296v8.92h-21.054v-43.424h21.054v8.92h3.296v-11.992h-34.662v3.072zM338.579 67.222v3.069h15.499v3.092h-15.499v3.004h15.499v5.396c-5.155 4.066-10.784 6.128-16.739 6.128-11.95 0-20.621-9.193-20.621-21.859 0-13.301 9.038-22.955 21.494-22.955 5.865 0 10.588 2.109 13.076 4.572h4.201c-2.569-3.969-8.949-7.717-17.204-7.717-14.21.082-24.929 11.3-24.929 26.1 0 16.367 12.024 24.931 23.909 24.931 6.265 0 11.502-1.703 16.812-5.494v4.762h3.296V67.223h-18.794zM354.673 221.842l-11.869-18.794c7.431-1.677 11.828-6.724 11.828-13.668 0-8.263-6.885-14.037-16.739-14.037h-18.647v3.071h6.95v43.427h-6.95v3.067h41.603v-3.067h-6.176zm-25.117 0v-43.427h8.19c8.174 0 13.451 4.305 13.451 10.965 0 6.752-4.601 10.747-13.614 11.102l13.125 21.36z"/>
</svg>
